<?xml version="1.0" encoding="UTF-8"?>
<svg width="72px" height="72px" viewBox="0 0 72 72" version="1.1" xmlns="http://www.w3.org/2000/svg" xmlns:xlink="http://www.w3.org/1999/xlink">
    <title>ventilation</title>
    <g id="Page-1" stroke="none" stroke-width="1" fill="none" fill-rule="evenodd">
        <g id="加热方式" transform="translate(-796.000000, -48.000000)">
            <g id="ventilation" transform="translate(796.000000, 48.000000)">
                <g id="编组-3">
                    <g id="icon/32/about备份-6" transform="translate(15.750000, 16.750000)" fill="#FFFFFF" fill-rule="nonzero">
                        <g id="fan" transform="translate(20.012391, 19.355640) rotate(-330.000000) translate(-20.012391, -19.355640) translate(7.696465, 6.124516)">
                            <polygon id="路径" points="12.4037051 1.36800213 13.2309665 -5.68434189e-14 21.3974422 4.93844988 21.3974422 11.1685933 16.6851316 14.9263602 15.6883967 13.6764358 19.7982569 10.3986721 19.7982569 5.83975764"></polygon>
                            <polygon id="路径" points="0.195204003 11.2586953 5.58996641 8.14462297 11.1991479 10.349697 10.6142481 11.8375423 5.72152368 9.91407346 1.77490526 12.1921985 1.59834999 20.8363204 2.27373675e-13 20.8036324"></polygon>
                            <polygon id="路径" points="11.5588297 17.1504452 12.3398779 22.3461748 16.2864963 24.6269643 23.8612339 20.4600754 24.6318529 21.8607672 16.2681117 26.4622487 10.8736438 23.3459657 9.97791286 17.3881281"></polygon>
                        </g>
                        <path d="M20.2503978,0 C9.06684055,0 0,9.06650409 0,20.25 C0,31.4334959 9.06684055,40.5 20.2503978,40.5 C31.434341,40.5 40.5,31.4339056 40.5,20.25 C40.5,9.0660944 31.434341,0 20.2503978,0 Z M20.2504014,1.59865016 C30.5514253,1.59865016 38.9013508,9.94897665 38.9013508,20.249966 C38.9013508,30.5509552 30.5514253,38.9012817 20.2504014,38.9012817 C9.94973299,38.9012817 1.59864916,30.5505078 1.59864916,20.249966 C1.59864916,9.9494241 9.94973299,1.59865016 20.2504014,1.59865016 Z" id="Stroke-1"></path>
                    </g>
                    <rect id="矩形" x="0" y="0" width="72" height="72"></rect>
                </g>
                <rect id="矩形备份-8" x="0" y="0" width="72" height="72"></rect>
            </g>
        </g>
    </g>
</svg>